PathFileType	4	(X/Y/Z)	C:/Users/beibeiliu/ov580/test_trc/capture2\sequence.7_training_dense_left.trc
DataRate	CameraRate	NumFrames	NumMarkers	Units	OrigDataRate	OrigDataStartFrame	OrigNumFrames
120	120	15	19	mm	120	51	400
Frame#	Time	ThumbCMC			ThumbMCP			ThumbIP			ThumbTip			IndexMCP			IndexPIP			IndexTip			MiddleMCP			MiddlePIP			MiddleTip			RingMCP			RingPIP			RingTip			PinkyMCP			PinkyPIP			PinkyTip			BackHand1			BackHand2			BackHand3	
		X0	Y0	Z0	X1	Y1	Z1	X2	Y2	Z2	X3	Y3	Z3	X4	Y4	Z4	X5	Y5	Z5	X6	Y6	Z6	X7	Y7	Z7	X8	Y8	Z8	X9	Y9	Z9	X10	Y10	Z10	X11	Y11	Z11	X12	Y12	Z12	X13	Y13	Z13	X14	Y14	Z14	X15	Y15	Z15	X16	Y16	Z16	X17	Y17	Z17	X18	Y18	Z18	
50	0.416667	-163.708	67.1496	-43.9789	-152.201	77.406	-66.251	-147.546	89.8095	-87.1167	-144.771	105.36	-102.555	-137.287	44.5616	-111.488	-107.796	34.8039	-100.435	-119.073	41.3312	-71.2408	-136.278	19.875	-109.872	-109.481	18.0967	-92.3118	-129.36	26.1579	-63.4459	-137.614	3.11035	-102	-114.11	5.77416	-77.9581	-139.195	19.3884	-57.9782	-138.776	-10.8868	-89.8755	-119.761	-4.9217	-69.7207	-137.857	13.0637	-49.8722	-186.639	9.87935	-71.0395	-195.452	14.9684	-44.0264	-186.311	42.5614	-61.5023	
51	0.425	-165.239	61.439	-46.192	-154.321	73.797	-66.947	-150.444	81.8666	-90.6305	-148.983	97.8524	-109.686	-138.57	34.4073	-114.743	-110.795	30.3299	-103.218	-126.192	35.0034	-72.3864	-139.03	13.2572	-111.213	-111.196	14.1934	-97.8665	-135.047	22.92	-64.2895	-138.192	-1.80661	-103.047	-115.636	3.36594	-81.5429	-137.4	11.7636	-58.7689	-142.788	-20.62	-90.1065	-121.865	-7.03537	-69.8964	-141.685	8.8935	-54.3919	-186.824	4.04813	-73.0007	-195.799	7.15032	-42.7112	-188.262	38.1894	-63.8458	
52	0.433333	-169.354	52.9748	-50.3105	-158.883	64.856	-67.9564	-157.737	79.5381	-98.2927	-154.969	90.4114	-113.09	-143.305	27.3622	-115.331	-114.542	24.483	-104.965	-130.707	29.8867	-74.7712	-138.247	5.86483	-113.07	-113.473	10.3497	-97.4632	-134.453	22.9876	-67.8222	-141.709	-11.1948	-100.996	-117.96	-0.929642	-82.6334	-141.12	9.68771	-59.3901	-142.991	-24.1596	-89.6244	-124.011	-10.004	-70.1854	-146.599	5.14726	-50.1352	-187.323	-1.70338	-73.5151	-199.644	2.20392	-40.7085	-190.451	32.4027	-66.2575	
53	0.441667	-172.969	53.3115	-49.3506	-164.655	64.0149	-74.651	-163.12	76.6285	-98.961	-160.783	84.7625	-114.29	-146.766	26.0521	-116.064	-117.105	25.5523	-104.747	-130.328	30.6129	-76.42	-140.537	8.34337	-113.997	-115.537	10.2715	-94.3922	-138.345	19.3883	-67.6081	-140.855	-7.79286	-103.34	-119.542	-3.28355	-83.3301	-139.17	10.5697	-60.9726	-144.761	-23.0185	-91.2353	-124.51	-9.46711	-73.1286	-144.119	4.55675	-52.6064	-192.286	-7.88814	-69.915	-200.022	0.0121523	-42.853	-193.203	29.6888	-66.9522	
54	0.45	-177.811	50.0172	-54.6774	-169.434	59.8138	-73.171	-169.77	72.7184	-98.9353	-168.254	81.0504	-115.862	-149.391	24.0121	-117.037	-119.535	26.581	-103.499	-134.46	30.4999	-76.9347	-144.317	2.26851	-112.76	-118.665	11.5907	-94.5084	-141.447	20.6804	-68.0296	-142.244	-13.4635	-101.282	-120.125	-2.98689	-80.0993	-142.274	9.59312	-61.7427	-141.3	-23.9987	-90.6056	-124.353	-9.81228	-72.538	-146.437	3.2152	-54.8434	-191.587	-11.968	-71.3717	-198.381	-5.5126	-39.9388	-194.625	25.1109	-64.788	
55	0.458333	-180.898	46.0004	-53.2566	-174.53	59.0455	-76.57	-174.428	67.3029	-99.2223	-177.117	82.8792	-117.091	-154.501	21.5663	-116.497	-124.515	25.9681	-106.468	-139.089	30.452	-77.4299	-146.654	4.40718	-113.249	-119.794	14.0723	-96.1598	-140.08	17.7604	-67.7108	-145.411	-10.9041	-102.457	-120.939	0.671527	-80.0619	-143.901	9.46843	-61.0716	-141.76	-26.0827	-90.0594	-124.271	-9.25354	-74.626	-150.081	1.18518	-51.6993	-190.744	-11.722	-70.1232	-199.466	-5.23803	-42.6429	-200.215	20.7466	-62.2925	
56	0.466667	-185.455	45.8714	-55.5999	-179.904	58.6006	-76.3618	-182.295	69.2009	-100.073	-183.687	80.3184	-114.994	-155.384	23.5014	-118.604	-127.597	30.3736	-108.863	-139.437	34.1714	-79.338	-146.228	4.61863	-114.09	-121.97	14.0309	-94.725	-145.652	17.937	-67.2776	-145.057	-10.9745	-101.412	-122.245	2.62243	-80.5295	-147.646	11.7819	-62.1269	-144.83	-24.1469	-89.0201	-123.957	-7.91629	-75.1235	-148.278	1.60079	-51.5199	-189.393	-18.6884	-72.1682	-200.601	-10.6193	-38.6586	-199.062	19.0906	-65.5096	
57	0.475	-187.896	43.2894	-51.0156	-182.754	53.7862	-73.4839	-184.794	62.1048	-101.097	-188.391	73.2531	-117.558	-155.381	23.5771	-118.282	-129.9	28.9408	-107.23	-144.999	33.4442	-78.6964	-147.307	2.93785	-113.121	-123.093	14.027	-98.6284	-148.244	19.6192	-67.7139	-140.351	-8.7238	-101.992	-122.546	6.76074	-82.7822	-144.969	12.3354	-61.6882	-141.12	-24.4285	-88.0026	-123.014	-5.38503	-70.1476	-146.317	3.39286	-49.4566	-187.004	-19.7571	-67.413	-199.56	-9.38374	-40.145	-201.633	14.1832	-61.9716	
58	0.483333	-192.465	45.0092	-51.4342	-185.835	52.3609	-74.3227	-190.58	61.9917	-97.0744	-195.192	71.7178	-118.416	-160.706	21.5187	-117.125	-132.787	30.3428	-109.732	-149.385	32.8272	-77.4851	-150.24	2.34799	-111.085	-125.504	18.4634	-94.4888	-149.603	22.1437	-67.703	-142.732	-10.5687	-100.326	-123.184	7.64199	-81.6508	-145.394	13.3875	-61.3337	-138.291	-23.6268	-87.3531	-123.007	-2.58003	-73.3846	-148.485	4.9975	-50.9504	-186.481	-18.3039	-69.55	-196.463	-13.2595	-36.4221	-201.825	10.0732	-62.2052	
59	0.491667	-194.908	43.2458	-49.986	-189.085	50.8781	-73.9432	-194.463	59.0915	-97.4133	-198.741	66.4726	-119.59	-159.911	23.4859	-118.647	-136.306	37.3835	-107.473	-147.666	33.881	-79.3891	-147.367	2.89787	-111.635	-126.372	20.5993	-98.92	-147.362	20.4559	-67.6633	-138.544	-8.26457	-100.054	-124.887	12.7195	-82.1816	-150.435	12.3502	-59.273	-137.373	-22.298	-84.5342	-122.803	1.85358	-69.195	-145.774	5.31807	-52.8013	-183.015	-24.4363	-61.5004	-193.508	-17.8124	-34.4405	-203.014	9.77716	-61.0349	
60	0.5	-197.743	37.7465	-48.9414	-192.982	45.213	-72.1575	-201.089	53.7987	-100.238	-205.35	58.3812	-117.978	-164.785	17.3159	-114.149	-137.824	33.3767	-109.657	-152.824	32.291	-76.2859	-149.687	5.07432	-111.419	-127.338	21.6451	-99.3752	-151.188	25.8252	-67.4603	-136.748	-8.12377	-98.7747	-122.113	13.3809	-81.044	-146.721	14.8539	-60.9242	-132.924	-18.5279	-84.1561	-119.211	3.68538	-70.2311	-143.561	7.18556	-48.8655	-177.294	-25.5123	-63.7832	-188.736	-18.6727	-30.7064	-197.1	0.259967	-56.5915	
61	0.508333	-197.139	31.7765	-48.5009	-195.578	41.2801	-70.7849	-204.211	47.833	-94.4344	-212.592	53.2321	-115.86	-162.003	11.7101	-112.342	-138.025	32.4413	-107.686	-152.986	35.0057	-77.0104	-144.972	3.50998	-109.401	-126.767	23.7105	-94.7761	-149.558	23.6425	-66.4341	-131.418	-10.2174	-95.2347	-120.899	16.2659	-82.1045	-144.602	11.2598	-57.4532	-122.711	-18.2567	-82.9832	-117.401	7.98745	-69.1536	-142.827	6.08551	-51.8182	-168.18	-30.066	-60.3639	-179.325	-23.3651	-30.5904	-197.952	-2.83006	-53.9036	
62	0.516667	-194.685	27.6743	-45.02	-194.26	35.4126	-71.4294	-202.318	40.7178	-90.6861	-212.59	44.6387	-114.12	-158.584	11.8751	-112.619	-138.408	32.8059	-108.084	-152.385	29.883	-74.6757	-143.364	1.14605	-106.555	-127.196	26.7801	-94.2292	-145.252	21.5542	-63.6941	-126.738	-7.7521	-94.389	-119.012	18.1307	-82.6451	-143.416	11.5469	-56.682	-119.818	-17.3089	-80.6835	-114.05	9.40477	-67.9331	-141.123	5.19134	-47.7242	-166.317	-30.9373	-53.7923	-175.028	-23.8483	-27.23	-191.047	-7.59536	-51.3542	
63	0.525	-191.892	21.8202	-42.7369	-193.592	30.224	-66.6176	-202.648	33.4704	-88.9186	-212.054	37.2997	-110.697	-158.483	9.06706	-109.522	-138.641	31.975	-104.099	-152.248	29.9844	-73.1384	-139.107	-0.467065	-104.81	-125.622	24.3083	-95.0635	-146.601	22.1972	-64.2305	-127.122	-10.0996	-91.8646	-118.594	18.2359	-80.0898	-138.957	11.5524	-54.8611	-119.533	-18.5173	-78.8109	-110.707	9.05839	-67.2754	-139.242	5.82246	-49.7607	-161.126	-32.4652	-52.7851	-168.017	-31.6999	-21.2046	-188.541	-13.1644	-50.7402	
64	0.533333	-188.017	15.0517	-40.5548	-191.911	26.9948	-61.4588	-205.162	28.5016	-89.4583	-210.54	31.1991	-106.942	-154.755	6.18739	-108.669	-137.864	30.7856	-101.862	-149.727	30.8677	-73.5588	-139.458	-1.97091	-104.145	-124.08	23.7731	-90.6326	-144.037	18.2326	-60.6166	-120.809	-10.6397	-91.8241	-114.726	16.7642	-79.0657	-138.288	10.4636	-54.5597	-116.029	-16.8349	-77.7745	-109.779	10.0141	-66.6554	-132.128	3.99115	-43.3631	-154.637	-36.8539	-50.1538	-162.853	-32.016	-20.484	-183.158	-15.3579	-46.6714	
